<svg width="48" height="48" viewBox="0 0 48 48" fill="none" xmlns="http://www.w3.org/2000/svg">
<path d="M38 42.0001L38 6.00007C37.9988 5.63559 37.8983 5.27832 37.7092 4.96672C37.5201 4.65512 37.2496 4.40099 36.9269 4.23168C36.6041 4.06237 36.2412 3.9843 35.8774 4.00587C35.5136 4.02743 35.1625 4.14782 34.862 4.35407L8.86197 22.3541C7.78397 23.1001 7.78397 24.8961 8.86197 25.6441L34.862 43.6441C35.1619 43.8524 35.5131 43.9746 35.8776 43.9973C36.242 44.0201 36.6057 43.9425 36.9292 43.773C37.2526 43.6036 37.5235 43.3487 37.7123 43.0361C37.901 42.7236 38.0005 42.3652 38 42.0001ZM13.514 24.0001L34 9.81607L34 38.1841L13.514 24.0001Z" fill="black"/>
</svg>
