<svg width="48" height="48" viewBox="0 0 48 48" fill="none" xmlns="http://www.w3.org/2000/svg">
<path d="M10 5.99993L10 41.9999C10.0012 42.3644 10.1017 42.7217 10.2908 43.0333C10.4799 43.3449 10.7504 43.599 11.0731 43.7683C11.3959 43.9376 11.7588 44.0157 12.1226 43.9941C12.4864 43.9726 12.8375 43.8522 13.138 43.6459L39.138 25.6459C40.216 24.8999 40.216 23.1039 39.138 22.3559L13.138 4.35593C12.8381 4.14758 12.4869 4.0254 12.1224 4.00266C11.758 3.97992 11.3943 4.05749 11.0708 4.22696C10.7474 4.39642 10.4765 4.65128 10.2877 4.96386C10.099 5.27643 9.99946 5.63477 10 5.99993ZM34.486 23.9999L14 38.1839L14 9.81593L34.486 23.9999Z" fill="black"/>
</svg>
